<mxfile host="app.diagrams.net" modified="2023-05-21T17:10:42.521Z" agent="Mozilla/5.0 (Macintosh; Intel Mac OS X 10_15_7) AppleWebKit/537.36 (KHTML, like Gecko) Chrome/111.0.0.0 Safari/537.36" etag="W_apSSlt3C4p8MgEMWpS" version="21.2.3" type="github">
  <diagram id="C5RBs43oDa-KdzZeNtuy" name="Page-1">
    <mxGraphModel dx="1877" dy="583" grid="1" gridSize="10" guides="1" tooltips="1" connect="1" arrows="1" fold="1" page="1" pageScale="1" pageWidth="827" pageHeight="1169" math="0" shadow="0">
      <root>
        <mxCell id="WIyWlLk6GJQsqaUBKTNV-0" />
        <mxCell id="WIyWlLk6GJQsqaUBKTNV-1" parent="WIyWlLk6GJQsqaUBKTNV-0" />
        <mxCell id="aQzAEwnIJvp2Obcrghbw-7" style="edgeStyle=orthogonalEdgeStyle;rounded=0;orthogonalLoop=1;jettySize=auto;html=1;entryX=0.5;entryY=0;entryDx=0;entryDy=0;" edge="1" parent="WIyWlLk6GJQsqaUBKTNV-1" source="WIyWlLk6GJQsqaUBKTNV-3" target="aQzAEwnIJvp2Obcrghbw-5">
          <mxGeometry relative="1" as="geometry" />
        </mxCell>
        <mxCell id="WIyWlLk6GJQsqaUBKTNV-3" value="toy文件" style="rounded=1;whiteSpace=wrap;html=1;fontSize=12;glass=0;strokeWidth=1;shadow=0;" parent="WIyWlLk6GJQsqaUBKTNV-1" vertex="1">
          <mxGeometry x="150" y="90" width="120" height="40" as="geometry" />
        </mxCell>
        <mxCell id="aQzAEwnIJvp2Obcrghbw-2" value="" style="edgeStyle=orthogonalEdgeStyle;rounded=0;orthogonalLoop=1;jettySize=auto;html=1;" edge="1" parent="WIyWlLk6GJQsqaUBKTNV-1" source="aQzAEwnIJvp2Obcrghbw-0" target="aQzAEwnIJvp2Obcrghbw-1">
          <mxGeometry relative="1" as="geometry" />
        </mxCell>
        <mxCell id="aQzAEwnIJvp2Obcrghbw-0" value="Ops.td" style="rounded=1;whiteSpace=wrap;html=1;fontSize=12;glass=0;strokeWidth=1;shadow=0;" vertex="1" parent="WIyWlLk6GJQsqaUBKTNV-1">
          <mxGeometry x="384" y="90" width="120" height="40" as="geometry" />
        </mxCell>
        <mxCell id="aQzAEwnIJvp2Obcrghbw-9" style="edgeStyle=orthogonalEdgeStyle;rounded=0;orthogonalLoop=1;jettySize=auto;html=1;" edge="1" parent="WIyWlLk6GJQsqaUBKTNV-1" source="aQzAEwnIJvp2Obcrghbw-1">
          <mxGeometry relative="1" as="geometry">
            <mxPoint x="210" y="240" as="targetPoint" />
            <Array as="points">
              <mxPoint x="420" y="240" />
            </Array>
          </mxGeometry>
        </mxCell>
        <mxCell id="aQzAEwnIJvp2Obcrghbw-1" value="Toy IR定义&lt;br&gt;Dialect/Ops.cpp/h.inc" style="whiteSpace=wrap;html=1;rounded=1;glass=0;strokeWidth=1;shadow=0;" vertex="1" parent="WIyWlLk6GJQsqaUBKTNV-1">
          <mxGeometry x="384" y="160" width="120" height="50" as="geometry" />
        </mxCell>
        <mxCell id="aQzAEwnIJvp2Obcrghbw-8" style="edgeStyle=orthogonalEdgeStyle;rounded=0;orthogonalLoop=1;jettySize=auto;html=1;entryX=0.5;entryY=0;entryDx=0;entryDy=0;" edge="1" parent="WIyWlLk6GJQsqaUBKTNV-1" source="aQzAEwnIJvp2Obcrghbw-5" target="aQzAEwnIJvp2Obcrghbw-6">
          <mxGeometry relative="1" as="geometry" />
        </mxCell>
        <mxCell id="aQzAEwnIJvp2Obcrghbw-5" value="AST" style="rounded=1;whiteSpace=wrap;html=1;fontSize=12;glass=0;strokeWidth=1;shadow=0;" vertex="1" parent="WIyWlLk6GJQsqaUBKTNV-1">
          <mxGeometry x="150" y="170" width="120" height="40" as="geometry" />
        </mxCell>
        <mxCell id="aQzAEwnIJvp2Obcrghbw-11" style="edgeStyle=orthogonalEdgeStyle;rounded=0;orthogonalLoop=1;jettySize=auto;html=1;entryX=0.5;entryY=0;entryDx=0;entryDy=0;" edge="1" parent="WIyWlLk6GJQsqaUBKTNV-1" source="aQzAEwnIJvp2Obcrghbw-6" target="aQzAEwnIJvp2Obcrghbw-10">
          <mxGeometry relative="1" as="geometry" />
        </mxCell>
        <mxCell id="aQzAEwnIJvp2Obcrghbw-6" value="Toy IR" style="rounded=1;whiteSpace=wrap;html=1;fontSize=12;glass=0;strokeWidth=1;shadow=0;" vertex="1" parent="WIyWlLk6GJQsqaUBKTNV-1">
          <mxGeometry x="150" y="260" width="120" height="40" as="geometry" />
        </mxCell>
        <mxCell id="aQzAEwnIJvp2Obcrghbw-15" value="" style="edgeStyle=orthogonalEdgeStyle;rounded=0;orthogonalLoop=1;jettySize=auto;html=1;" edge="1" parent="WIyWlLk6GJQsqaUBKTNV-1" source="aQzAEwnIJvp2Obcrghbw-10" target="aQzAEwnIJvp2Obcrghbw-14">
          <mxGeometry relative="1" as="geometry" />
        </mxCell>
        <mxCell id="aQzAEwnIJvp2Obcrghbw-10" value="Transpose消除" style="rounded=1;whiteSpace=wrap;html=1;fontSize=12;glass=0;strokeWidth=1;shadow=0;" vertex="1" parent="WIyWlLk6GJQsqaUBKTNV-1">
          <mxGeometry x="150" y="340" width="120" height="40" as="geometry" />
        </mxCell>
        <mxCell id="aQzAEwnIJvp2Obcrghbw-13" style="edgeStyle=orthogonalEdgeStyle;rounded=0;orthogonalLoop=1;jettySize=auto;html=1;" edge="1" parent="WIyWlLk6GJQsqaUBKTNV-1" source="aQzAEwnIJvp2Obcrghbw-12">
          <mxGeometry relative="1" as="geometry">
            <mxPoint x="210" y="320" as="targetPoint" />
          </mxGeometry>
        </mxCell>
        <mxCell id="aQzAEwnIJvp2Obcrghbw-12" value="1. Ops.td hasCanonicalizer = 1&lt;br&gt;2. 实现SimplifyRedundantTranspose并在TransposeOp::getCanonicalizationPatterns() 中注册&lt;br&gt;3. 调用&amp;nbsp;mlir::createCanonicalizerPass()&lt;br&gt;&lt;span style=&quot;background-color: initial;&quot;&gt;除了用C++代码定义改写规则，还可以用td语法（DRR）&lt;br&gt;&lt;/span&gt;" style="text;html=1;strokeColor=none;fillColor=none;align=center;verticalAlign=middle;whiteSpace=wrap;rounded=0;" vertex="1" parent="WIyWlLk6GJQsqaUBKTNV-1">
          <mxGeometry x="395" y="290" width="310" height="50" as="geometry" />
        </mxCell>
        <mxCell id="aQzAEwnIJvp2Obcrghbw-18" style="edgeStyle=orthogonalEdgeStyle;rounded=0;orthogonalLoop=1;jettySize=auto;html=1;entryX=0.5;entryY=0;entryDx=0;entryDy=0;" edge="1" parent="WIyWlLk6GJQsqaUBKTNV-1" source="aQzAEwnIJvp2Obcrghbw-14" target="aQzAEwnIJvp2Obcrghbw-17">
          <mxGeometry relative="1" as="geometry" />
        </mxCell>
        <mxCell id="aQzAEwnIJvp2Obcrghbw-14" value="Inline" style="whiteSpace=wrap;html=1;rounded=1;glass=0;strokeWidth=1;shadow=0;" vertex="1" parent="WIyWlLk6GJQsqaUBKTNV-1">
          <mxGeometry x="150" y="410" width="120" height="40" as="geometry" />
        </mxCell>
        <mxCell id="aQzAEwnIJvp2Obcrghbw-16" value="&lt;br&gt;Toy采用了简单粗暴的办法，全部函数都inline到main中，然后在main中做shapeinference，这样就比较简单了&lt;br&gt;（具体怎么做的没有细看）" style="text;html=1;strokeColor=none;fillColor=none;align=center;verticalAlign=middle;whiteSpace=wrap;rounded=0;" vertex="1" parent="WIyWlLk6GJQsqaUBKTNV-1">
          <mxGeometry x="300" y="410" width="316" height="30" as="geometry" />
        </mxCell>
        <mxCell id="aQzAEwnIJvp2Obcrghbw-22" style="edgeStyle=orthogonalEdgeStyle;rounded=0;orthogonalLoop=1;jettySize=auto;html=1;entryX=0.5;entryY=0;entryDx=0;entryDy=0;" edge="1" parent="WIyWlLk6GJQsqaUBKTNV-1" source="aQzAEwnIJvp2Obcrghbw-17" target="aQzAEwnIJvp2Obcrghbw-20">
          <mxGeometry relative="1" as="geometry" />
        </mxCell>
        <mxCell id="aQzAEwnIJvp2Obcrghbw-17" value="ShapeInference" style="whiteSpace=wrap;html=1;rounded=1;glass=0;strokeWidth=1;shadow=0;" vertex="1" parent="WIyWlLk6GJQsqaUBKTNV-1">
          <mxGeometry x="150" y="480" width="120" height="40" as="geometry" />
        </mxCell>
        <mxCell id="aQzAEwnIJvp2Obcrghbw-19" value="优化及代码生成都要求Tensor的形状得到确定。" style="text;html=1;strokeColor=none;fillColor=none;align=center;verticalAlign=middle;whiteSpace=wrap;rounded=0;" vertex="1" parent="WIyWlLk6GJQsqaUBKTNV-1">
          <mxGeometry x="300" y="485" width="270" height="30" as="geometry" />
        </mxCell>
        <mxCell id="aQzAEwnIJvp2Obcrghbw-30" style="edgeStyle=orthogonalEdgeStyle;rounded=0;orthogonalLoop=1;jettySize=auto;html=1;entryX=0.5;entryY=0;entryDx=0;entryDy=0;" edge="1" parent="WIyWlLk6GJQsqaUBKTNV-1" source="aQzAEwnIJvp2Obcrghbw-20" target="aQzAEwnIJvp2Obcrghbw-25">
          <mxGeometry relative="1" as="geometry" />
        </mxCell>
        <mxCell id="aQzAEwnIJvp2Obcrghbw-20" value="部分lowering到&lt;br&gt;affine, arith, func, memref" style="whiteSpace=wrap;html=1;rounded=1;glass=0;strokeWidth=1;shadow=0;" vertex="1" parent="WIyWlLk6GJQsqaUBKTNV-1">
          <mxGeometry x="130" y="560" width="160" height="40" as="geometry" />
        </mxCell>
        <mxCell id="aQzAEwnIJvp2Obcrghbw-21" value="关键词：Partial lowering, Rewrite Pattern, Legal/illegal&lt;br&gt;affine: 负责store load 循环语句&lt;br&gt;arith: 负责constant&lt;br&gt;func: 负责函数定义&lt;br&gt;memref：负责定义存放tensor的内存" style="text;html=1;strokeColor=none;fillColor=none;align=center;verticalAlign=middle;whiteSpace=wrap;rounded=0;" vertex="1" parent="WIyWlLk6GJQsqaUBKTNV-1">
          <mxGeometry x="420" y="560" width="330" height="30" as="geometry" />
        </mxCell>
        <mxCell id="aQzAEwnIJvp2Obcrghbw-26" style="edgeStyle=orthogonalEdgeStyle;rounded=0;orthogonalLoop=1;jettySize=auto;html=1;entryX=1;entryY=0.5;entryDx=0;entryDy=0;" edge="1" parent="WIyWlLk6GJQsqaUBKTNV-1" source="aQzAEwnIJvp2Obcrghbw-24" target="aQzAEwnIJvp2Obcrghbw-25">
          <mxGeometry relative="1" as="geometry" />
        </mxCell>
        <mxCell id="aQzAEwnIJvp2Obcrghbw-24" value="LoopFusion and AffineScalarReplacement" style="text;html=1;strokeColor=none;fillColor=none;align=center;verticalAlign=middle;whiteSpace=wrap;rounded=0;" vertex="1" parent="WIyWlLk6GJQsqaUBKTNV-1">
          <mxGeometry x="400" y="645" width="300" height="30" as="geometry" />
        </mxCell>
        <mxCell id="aQzAEwnIJvp2Obcrghbw-34" style="edgeStyle=orthogonalEdgeStyle;rounded=0;orthogonalLoop=1;jettySize=auto;html=1;entryX=0.5;entryY=0;entryDx=0;entryDy=0;" edge="1" parent="WIyWlLk6GJQsqaUBKTNV-1" source="aQzAEwnIJvp2Obcrghbw-25" target="aQzAEwnIJvp2Obcrghbw-31">
          <mxGeometry relative="1" as="geometry" />
        </mxCell>
        <mxCell id="aQzAEwnIJvp2Obcrghbw-25" value="利用MLIR提供的affine 优化pass" style="whiteSpace=wrap;html=1;rounded=1;glass=0;strokeWidth=1;shadow=0;" vertex="1" parent="WIyWlLk6GJQsqaUBKTNV-1">
          <mxGeometry x="120" y="640" width="180" height="40" as="geometry" />
        </mxCell>
        <mxCell id="aQzAEwnIJvp2Obcrghbw-29" style="edgeStyle=orthogonalEdgeStyle;rounded=0;orthogonalLoop=1;jettySize=auto;html=1;" edge="1" parent="WIyWlLk6GJQsqaUBKTNV-1">
          <mxGeometry relative="1" as="geometry">
            <mxPoint x="444" y="145" as="targetPoint" />
            <mxPoint x="544" y="145" as="sourcePoint" />
          </mxGeometry>
        </mxCell>
        <mxCell id="aQzAEwnIJvp2Obcrghbw-28" value="&lt;div&gt;mlir_tablegen(Ops.h.inc -gen-op-decls)&lt;/div&gt;&lt;div&gt;mlir_tablegen(Ops.cpp.inc -gen-op-defs)&lt;/div&gt;&lt;div&gt;mlir_tablegen(Dialect.h.inc -gen-dialect-decls)&lt;/div&gt;&lt;div&gt;mlir_tablegen(Dialect.cpp.inc -gen-dialect-defs)&lt;/div&gt;" style="text;html=1;strokeColor=none;fillColor=none;align=center;verticalAlign=middle;whiteSpace=wrap;rounded=0;" vertex="1" parent="WIyWlLk6GJQsqaUBKTNV-1">
          <mxGeometry x="540" y="130" width="280" height="30" as="geometry" />
        </mxCell>
        <mxCell id="aQzAEwnIJvp2Obcrghbw-37" style="edgeStyle=orthogonalEdgeStyle;rounded=0;orthogonalLoop=1;jettySize=auto;html=1;entryX=0.5;entryY=0;entryDx=0;entryDy=0;" edge="1" parent="WIyWlLk6GJQsqaUBKTNV-1" source="aQzAEwnIJvp2Obcrghbw-31" target="aQzAEwnIJvp2Obcrghbw-36">
          <mxGeometry relative="1" as="geometry" />
        </mxCell>
        <mxCell id="aQzAEwnIJvp2Obcrghbw-40" style="edgeStyle=orthogonalEdgeStyle;rounded=0;orthogonalLoop=1;jettySize=auto;html=1;" edge="1" parent="WIyWlLk6GJQsqaUBKTNV-1" source="aQzAEwnIJvp2Obcrghbw-31">
          <mxGeometry relative="1" as="geometry">
            <mxPoint x="50" y="820" as="targetPoint" />
          </mxGeometry>
        </mxCell>
        <mxCell id="aQzAEwnIJvp2Obcrghbw-31" value="LLVM Dialect" style="whiteSpace=wrap;html=1;rounded=1;glass=0;strokeWidth=1;shadow=0;" vertex="1" parent="WIyWlLk6GJQsqaUBKTNV-1">
          <mxGeometry x="120" y="730" width="180" height="40" as="geometry" />
        </mxCell>
        <mxCell id="aQzAEwnIJvp2Obcrghbw-33" style="edgeStyle=orthogonalEdgeStyle;rounded=0;orthogonalLoop=1;jettySize=auto;html=1;" edge="1" parent="WIyWlLk6GJQsqaUBKTNV-1" source="aQzAEwnIJvp2Obcrghbw-32">
          <mxGeometry relative="1" as="geometry">
            <mxPoint x="210" y="710" as="targetPoint" />
          </mxGeometry>
        </mxCell>
        <mxCell id="aQzAEwnIJvp2Obcrghbw-32" value="Full Lowering 到 LLVM Dialect" style="text;html=1;strokeColor=none;fillColor=none;align=center;verticalAlign=middle;whiteSpace=wrap;rounded=0;" vertex="1" parent="WIyWlLk6GJQsqaUBKTNV-1">
          <mxGeometry x="405" y="690" width="300" height="30" as="geometry" />
        </mxCell>
        <mxCell id="aQzAEwnIJvp2Obcrghbw-36" value="LLVM IR" style="whiteSpace=wrap;html=1;rounded=1;glass=0;strokeWidth=1;shadow=0;" vertex="1" parent="WIyWlLk6GJQsqaUBKTNV-1">
          <mxGeometry x="160" y="820" width="100" height="40" as="geometry" />
        </mxCell>
        <mxCell id="aQzAEwnIJvp2Obcrghbw-39" style="edgeStyle=orthogonalEdgeStyle;rounded=0;orthogonalLoop=1;jettySize=auto;html=1;" edge="1" parent="WIyWlLk6GJQsqaUBKTNV-1" source="aQzAEwnIJvp2Obcrghbw-38">
          <mxGeometry relative="1" as="geometry">
            <mxPoint x="210" y="795" as="targetPoint" />
          </mxGeometry>
        </mxCell>
        <mxCell id="aQzAEwnIJvp2Obcrghbw-38" value="emit LLVM IR, 走出 MLIR的系统，进入LLVM的领域。" style="text;html=1;strokeColor=none;fillColor=none;align=center;verticalAlign=middle;whiteSpace=wrap;rounded=0;" vertex="1" parent="WIyWlLk6GJQsqaUBKTNV-1">
          <mxGeometry x="310" y="780" width="300" height="30" as="geometry" />
        </mxCell>
        <mxCell id="aQzAEwnIJvp2Obcrghbw-41" value="MLIR VM执行" style="whiteSpace=wrap;html=1;rounded=1;glass=0;strokeWidth=1;shadow=0;" vertex="1" parent="WIyWlLk6GJQsqaUBKTNV-1">
          <mxGeometry x="10" y="820" width="100" height="40" as="geometry" />
        </mxCell>
        <mxCell id="aQzAEwnIJvp2Obcrghbw-42" value="mlirMLIR有一个JIT虚拟机mlir::ExecutionEngine 可以执行LLVM Dialect" style="text;html=1;strokeColor=none;fillColor=none;align=center;verticalAlign=middle;whiteSpace=wrap;rounded=0;" vertex="1" parent="WIyWlLk6GJQsqaUBKTNV-1">
          <mxGeometry x="-180" y="760" width="170" height="30" as="geometry" />
        </mxCell>
        <mxCell id="aQzAEwnIJvp2Obcrghbw-43" value="MLIRgen.cpp根据AST结点类型，&lt;br&gt;通过builder构造Toy IR，&lt;br&gt;进入MLIR系统" style="text;html=1;strokeColor=none;fillColor=none;align=center;verticalAlign=middle;whiteSpace=wrap;rounded=0;" vertex="1" parent="WIyWlLk6GJQsqaUBKTNV-1">
          <mxGeometry x="230" y="220" width="200" height="30" as="geometry" />
        </mxCell>
      </root>
    </mxGraphModel>
  </diagram>
</mxfile>
